<?xml version="1.0" encoding="utf-8" standalone="no"?>
<!DOCTYPE svg PUBLIC "-//W3C//DTD SVG 1.1//EN"
  "http://www.w3.org/Graphics/SVG/1.1/DTD/svg11.dtd">
<!-- Created with matplotlib (http://matplotlib.org/) -->
<svg height="396pt" version="1.1" viewBox="0 0 576 396" width="576pt" xmlns="http://www.w3.org/2000/svg" xmlns:xlink="http://www.w3.org/1999/xlink">
 <defs>
  <style type="text/css">
*{stroke-linecap:butt;stroke-linejoin:round;stroke-miterlimit:100000;}
  </style>
 </defs>
 <g id="figure_1">
  <g id="patch_1">
   <path d="M 0 396 
L 576 396 
L 576 0 
L 0 0 
z
" style="fill:#ffffff;"/>
  </g>
  <g id="axes_1">
   <g id="patch_2">
    <path d="M 93.55 368.2 
L 557.2 368.2 
L 557.2 10.8 
L 93.55 10.8 
z
" style="fill:#ffffff;"/>
   </g>
   <g id="patch_3">
    <path clip-path="url(#pab6ab58d54)" d="M 93.55 356.286667 
L 299.825639 356.286667 
L 299.825639 348.344444 
L 93.55 348.344444 
z
" style="fill:#ff0000;stroke:#000000;stroke-linejoin:miter;stroke-width:0.3;"/>
   </g>
   <g id="patch_4">
    <path clip-path="url(#pab6ab58d54)" d="M 93.55 336.431111 
L 280.108114 336.431111 
L 280.108114 328.488889 
L 93.55 328.488889 
z
" style="fill:#ff0000;stroke:#000000;stroke-linejoin:miter;stroke-width:0.3;"/>
   </g>
   <g id="patch_5">
    <path clip-path="url(#pab6ab58d54)" d="M 93.55 316.575556 
L 299.825639 316.575556 
L 299.825639 308.633333 
L 93.55 308.633333 
z
" style="fill:#ff0000;stroke:#000000;stroke-linejoin:miter;stroke-width:0.3;"/>
   </g>
   <g id="patch_6">
    <path clip-path="url(#pab6ab58d54)" d="M 93.55 296.72 
L 292.241976 296.72 
L 292.241976 288.777778 
L 93.55 288.777778 
z
" style="fill:#ff0000;stroke:#000000;stroke-linejoin:miter;stroke-width:0.3;"/>
   </g>
   <g id="patch_7">
    <path clip-path="url(#pab6ab58d54)" d="M 93.55 276.864444 
L 311.9595 276.864444 
L 311.9595 268.922222 
L 93.55 268.922222 
z
" style="fill:#ff0000;stroke:#000000;stroke-linejoin:miter;stroke-width:0.3;"/>
   </g>
   <g id="patch_8">
    <path clip-path="url(#pab6ab58d54)" d="M 93.55 257.008889 
L 313.476232 257.008889 
L 313.476232 249.066667 
L 93.55 249.066667 
z
" style="fill:#ff0000;stroke:#000000;stroke-linejoin:miter;stroke-width:0.3;"/>
   </g>
   <g id="patch_9">
    <path clip-path="url(#pab6ab58d54)" d="M 93.55 237.153333 
L 318.02643 237.153333 
L 318.02643 229.211111 
L 93.55 229.211111 
z
" style="fill:#ff0000;stroke:#000000;stroke-linejoin:miter;stroke-width:0.3;"/>
   </g>
   <g id="patch_10">
    <path clip-path="url(#pab6ab58d54)" d="M 93.55 217.297778 
L 327.126826 217.297778 
L 327.126826 209.355556 
L 93.55 209.355556 
z
" style="fill:#ff0000;stroke:#000000;stroke-linejoin:miter;stroke-width:0.3;"/>
   </g>
   <g id="patch_11">
    <path clip-path="url(#pab6ab58d54)" d="M 93.55 197.442222 
L 331.677024 197.442222 
L 331.677024 189.5 
L 93.55 189.5 
z
" style="fill:#ff0000;stroke:#000000;stroke-linejoin:miter;stroke-width:0.3;"/>
   </g>
   <g id="patch_12">
    <path clip-path="url(#pab6ab58d54)" d="M 93.55 177.586667 
L 346.84435 177.586667 
L 346.84435 169.644444 
L 93.55 169.644444 
z
" style="fill:#ff0000;stroke:#000000;stroke-linejoin:miter;stroke-width:0.3;"/>
   </g>
   <g id="patch_13">
    <path clip-path="url(#pab6ab58d54)" d="M 93.55 157.731111 
L 368.078607 157.731111 
L 368.078607 149.788889 
L 93.55 149.788889 
z
" style="fill:#ff0000;stroke:#000000;stroke-linejoin:miter;stroke-width:0.3;"/>
   </g>
   <g id="patch_14">
    <path clip-path="url(#pab6ab58d54)" d="M 93.55 137.875556 
L 366.561875 137.875556 
L 366.561875 129.933333 
L 93.55 129.933333 
z
" style="fill:#ff0000;stroke:#000000;stroke-linejoin:miter;stroke-width:0.3;"/>
   </g>
   <g id="patch_15">
    <path clip-path="url(#pab6ab58d54)" d="M 93.55 118.02 
L 395.379795 118.02 
L 395.379795 110.077778 
L 93.55 110.077778 
z
" style="fill:#ff0000;stroke:#000000;stroke-linejoin:miter;stroke-width:0.3;"/>
   </g>
   <g id="patch_16">
    <path clip-path="url(#pab6ab58d54)" d="M 93.55 98.164444 
L 405.996923 98.164444 
L 405.996923 90.222222 
L 93.55 90.222222 
z
" style="fill:#ff0000;stroke:#000000;stroke-linejoin:miter;stroke-width:0.3;"/>
   </g>
   <g id="patch_17">
    <path clip-path="url(#pab6ab58d54)" d="M 93.55 78.308889 
L 434.814843 78.308889 
L 434.814843 70.366667 
L 93.55 70.366667 
z
" style="fill:#ff0000;stroke:#000000;stroke-linejoin:miter;stroke-width:0.3;"/>
   </g>
   <g id="patch_18">
    <path clip-path="url(#pab6ab58d54)" d="M 93.55 58.453333 
L 506.101277 58.453333 
L 506.101277 50.511111 
L 93.55 50.511111 
z
" style="fill:#ff0000;stroke:#000000;stroke-linejoin:miter;stroke-width:0.3;"/>
   </g>
   <g id="patch_19">
    <path clip-path="url(#pab6ab58d54)" d="M 93.55 38.597778 
L 509.134743 38.597778 
L 509.134743 30.655556 
L 93.55 30.655556 
z
" style="fill:#ff0000;stroke:#000000;stroke-linejoin:miter;stroke-width:0.3;"/>
   </g>
   <g id="patch_20">
    <path clip-path="url(#pab6ab58d54)" d="M 93.55 348.344444 
L 284.720029 348.344444 
L 284.720029 340.402222 
L 93.55 340.402222 
z
" style="fill:#0000ff;stroke:#000000;stroke-linejoin:miter;stroke-width:0.3;"/>
   </g>
   <g id="patch_21">
    <path clip-path="url(#pab6ab58d54)" d="M 93.55 328.488889 
L 300.389704 328.488889 
L 300.389704 320.546667 
L 93.55 320.546667 
z
" style="fill:#0000ff;stroke:#000000;stroke-linejoin:miter;stroke-width:0.3;"/>
   </g>
   <g id="patch_22">
    <path clip-path="url(#pab6ab58d54)" d="M 93.55 308.633333 
L 303.523639 308.633333 
L 303.523639 300.691111 
L 93.55 300.691111 
z
" style="fill:#0000ff;stroke:#000000;stroke-linejoin:miter;stroke-width:0.3;"/>
   </g>
   <g id="patch_23">
    <path clip-path="url(#pab6ab58d54)" d="M 93.55 288.777778 
L 306.657574 288.777778 
L 306.657574 280.835556 
L 93.55 280.835556 
z
" style="fill:#0000ff;stroke:#000000;stroke-linejoin:miter;stroke-width:0.3;"/>
   </g>
   <g id="patch_24">
    <path clip-path="url(#pab6ab58d54)" d="M 93.55 268.922222 
L 306.657574 268.922222 
L 306.657574 260.98 
L 93.55 260.98 
z
" style="fill:#0000ff;stroke:#000000;stroke-linejoin:miter;stroke-width:0.3;"/>
   </g>
   <g id="patch_25">
    <path clip-path="url(#pab6ab58d54)" d="M 93.55 249.066667 
L 300.389704 249.066667 
L 300.389704 241.124444 
L 93.55 241.124444 
z
" style="fill:#0000ff;stroke:#000000;stroke-linejoin:miter;stroke-width:0.3;"/>
   </g>
   <g id="patch_26">
    <path clip-path="url(#pab6ab58d54)" d="M 93.55 229.211111 
L 322.327248 229.211111 
L 322.327248 221.268889 
L 93.55 221.268889 
z
" style="fill:#0000ff;stroke:#000000;stroke-linejoin:miter;stroke-width:0.3;"/>
   </g>
   <g id="patch_27">
    <path clip-path="url(#pab6ab58d54)" d="M 93.55 209.355556 
L 328.595118 209.355556 
L 328.595118 201.413333 
L 93.55 201.413333 
z
" style="fill:#0000ff;stroke:#000000;stroke-linejoin:miter;stroke-width:0.3;"/>
   </g>
   <g id="patch_28">
    <path clip-path="url(#pab6ab58d54)" d="M 93.55 189.5 
L 316.059378 189.5 
L 316.059378 181.557778 
L 93.55 181.557778 
z
" style="fill:#0000ff;stroke:#000000;stroke-linejoin:miter;stroke-width:0.3;"/>
   </g>
   <g id="patch_29">
    <path clip-path="url(#pab6ab58d54)" d="M 93.55 169.644444 
L 334.862988 169.644444 
L 334.862988 161.702222 
L 93.55 161.702222 
z
" style="fill:#0000ff;stroke:#000000;stroke-linejoin:miter;stroke-width:0.3;"/>
   </g>
   <g id="patch_30">
    <path clip-path="url(#pab6ab58d54)" d="M 93.55 149.788889 
L 366.202337 149.788889 
L 366.202337 141.846667 
L 93.55 141.846667 
z
" style="fill:#0000ff;stroke:#000000;stroke-linejoin:miter;stroke-width:0.3;"/>
   </g>
   <g id="patch_31">
    <path clip-path="url(#pab6ab58d54)" d="M 93.55 129.933333 
L 385.005946 129.933333 
L 385.005946 121.991111 
L 93.55 121.991111 
z
" style="fill:#0000ff;stroke:#000000;stroke-linejoin:miter;stroke-width:0.3;"/>
   </g>
   <g id="patch_32">
    <path clip-path="url(#pab6ab58d54)" d="M 93.55 110.077778 
L 375.604142 110.077778 
L 375.604142 102.135556 
L 93.55 102.135556 
z
" style="fill:#0000ff;stroke:#000000;stroke-linejoin:miter;stroke-width:0.3;"/>
   </g>
   <g id="patch_33">
    <path clip-path="url(#pab6ab58d54)" d="M 93.55 90.222222 
L 428.881035 90.222222 
L 428.881035 82.28 
L 93.55 82.28 
z
" style="fill:#0000ff;stroke:#000000;stroke-linejoin:miter;stroke-width:0.3;"/>
   </g>
   <g id="patch_34">
    <path clip-path="url(#pab6ab58d54)" d="M 93.55 70.366667 
L 432.01497 70.366667 
L 432.01497 62.424444 
L 93.55 62.424444 
z
" style="fill:#0000ff;stroke:#000000;stroke-linejoin:miter;stroke-width:0.3;"/>
   </g>
   <g id="patch_35">
    <path clip-path="url(#pab6ab58d54)" d="M 93.55 50.511111 
L 507.229408 50.511111 
L 507.229408 42.568889 
L 93.55 42.568889 
z
" style="fill:#0000ff;stroke:#000000;stroke-linejoin:miter;stroke-width:0.3;"/>
   </g>
   <g id="patch_36">
    <path clip-path="url(#pab6ab58d54)" d="M 93.55 30.655556 
L 497.827603 30.655556 
L 497.827603 22.713333 
L 93.55 22.713333 
z
" style="fill:#0000ff;stroke:#000000;stroke-linejoin:miter;stroke-width:0.3;"/>
   </g>
   <g id="patch_37">
    <path d="M 93.55 10.8 
L 557.2 10.8 
" style="fill:none;stroke:#000000;stroke-linecap:square;stroke-linejoin:miter;"/>
   </g>
   <g id="patch_38">
    <path d="M 557.2 368.2 
L 557.2 10.8 
" style="fill:none;stroke:#000000;stroke-linecap:square;stroke-linejoin:miter;"/>
   </g>
   <g id="patch_39">
    <path d="M 93.55 368.2 
L 557.2 368.2 
" style="fill:none;stroke:#000000;stroke-linecap:square;stroke-linejoin:miter;"/>
   </g>
   <g id="patch_40">
    <path d="M 93.55 368.2 
L 93.55 10.8 
" style="fill:none;stroke:#000000;stroke-linecap:square;stroke-linejoin:miter;"/>
   </g>
   <g id="matplotlib.axis_1">
    <g id="xtick_1">
     <g id="line2d_1">
      <path clip-path="url(#pab6ab58d54)" d="M 93.55 368.2 
L 93.55 10.8 
" style="fill:none;stroke:#999999;stroke-linecap:square;stroke-width:0.1;"/>
     </g>
     <g id="line2d_2">
      <defs>
       <path d="M 0 0 
L 0 -1 
" id="m63270e8b9e" style="stroke:#000000;"/>
      </defs>
      <g>
       <use style="stroke:#000000;" x="93.55" xlink:href="#m63270e8b9e" y="368.2"/>
      </g>
     </g>
     <g id="line2d_3">
      <defs>
       <path d="M 0 0 
L 0 1 
" id="m37c1457294" style="stroke:#000000;"/>
      </defs>
      <g>
       <use style="stroke:#000000;" x="93.55" xlink:href="#m37c1457294" y="10.8"/>
      </g>
     </g>
     <g id="text_1">
      <!-- 0.0 -->
      <defs>
       <path d="M 31.78125 66.40625 
Q 24.171875 66.40625 20.328125 58.90625 
Q 16.5 51.421875 16.5 36.375 
Q 16.5 21.390625 20.328125 13.890625 
Q 24.171875 6.390625 31.78125 6.390625 
Q 39.453125 6.390625 43.28125 13.890625 
Q 47.125 21.390625 47.125 36.375 
Q 47.125 51.421875 43.28125 58.90625 
Q 39.453125 66.40625 31.78125 66.40625 
M 31.78125 74.21875 
Q 44.046875 74.21875 50.515625 64.515625 
Q 56.984375 54.828125 56.984375 36.375 
Q 56.984375 17.96875 50.515625 8.265625 
Q 44.046875 -1.421875 31.78125 -1.421875 
Q 19.53125 -1.421875 13.0625 8.265625 
Q 6.59375 17.96875 6.59375 36.375 
Q 6.59375 54.828125 13.0625 64.515625 
Q 19.53125 74.21875 31.78125 74.21875 
" id="DejaVuSans-30"/>
       <path d="M 10.6875 12.40625 
L 21 12.40625 
L 21 0 
L 10.6875 0 
z
" id="DejaVuSans-2e"/>
      </defs>
      <g transform="translate(85.5984375 382.7984375)scale(0.1 -0.1)">
       <use xlink:href="#DejaVuSans-30"/>
       <use x="63.623046875" xlink:href="#DejaVuSans-2e"/>
       <use x="95.41015625" xlink:href="#DejaVuSans-30"/>
      </g>
     </g>
    </g>
    <g id="xtick_2">
     <g id="line2d_4">
      <path clip-path="url(#pab6ab58d54)" d="M 186.28 368.2 
L 186.28 10.8 
" style="fill:none;stroke:#999999;stroke-linecap:square;stroke-width:0.1;"/>
     </g>
     <g id="line2d_5">
      <g>
       <use style="stroke:#000000;" x="186.28" xlink:href="#m63270e8b9e" y="368.2"/>
      </g>
     </g>
     <g id="line2d_6">
      <g>
       <use style="stroke:#000000;" x="186.28" xlink:href="#m37c1457294" y="10.8"/>
      </g>
     </g>
     <g id="text_2">
      <!-- 0.5 -->
      <defs>
       <path d="M 10.796875 72.90625 
L 49.515625 72.90625 
L 49.515625 64.59375 
L 19.828125 64.59375 
L 19.828125 46.734375 
Q 21.96875 47.46875 24.109375 47.828125 
Q 26.265625 48.1875 28.421875 48.1875 
Q 40.625 48.1875 47.75 41.5 
Q 54.890625 34.8125 54.890625 23.390625 
Q 54.890625 11.625 47.5625 5.09375 
Q 40.234375 -1.421875 26.90625 -1.421875 
Q 22.3125 -1.421875 17.546875 -0.640625 
Q 12.796875 0.140625 7.71875 1.703125 
L 7.71875 11.625 
Q 12.109375 9.234375 16.796875 8.0625 
Q 21.484375 6.890625 26.703125 6.890625 
Q 35.15625 6.890625 40.078125 11.328125 
Q 45.015625 15.765625 45.015625 23.390625 
Q 45.015625 31 40.078125 35.4375 
Q 35.15625 39.890625 26.703125 39.890625 
Q 22.75 39.890625 18.8125 39.015625 
Q 14.890625 38.140625 10.796875 36.28125 
z
" id="DejaVuSans-35"/>
      </defs>
      <g transform="translate(178.3284375 382.7984375)scale(0.1 -0.1)">
       <use xlink:href="#DejaVuSans-30"/>
       <use x="63.623046875" xlink:href="#DejaVuSans-2e"/>
       <use x="95.41015625" xlink:href="#DejaVuSans-35"/>
      </g>
     </g>
    </g>
    <g id="xtick_3">
     <g id="line2d_7">
      <path clip-path="url(#pab6ab58d54)" d="M 279.01 368.2 
L 279.01 10.8 
" style="fill:none;stroke:#999999;stroke-linecap:square;stroke-width:0.1;"/>
     </g>
     <g id="line2d_8">
      <g>
       <use style="stroke:#000000;" x="279.01" xlink:href="#m63270e8b9e" y="368.2"/>
      </g>
     </g>
     <g id="line2d_9">
      <g>
       <use style="stroke:#000000;" x="279.01" xlink:href="#m37c1457294" y="10.8"/>
      </g>
     </g>
     <g id="text_3">
      <!-- 1.0 -->
      <defs>
       <path d="M 12.40625 8.296875 
L 28.515625 8.296875 
L 28.515625 63.921875 
L 10.984375 60.40625 
L 10.984375 69.390625 
L 28.421875 72.90625 
L 38.28125 72.90625 
L 38.28125 8.296875 
L 54.390625 8.296875 
L 54.390625 0 
L 12.40625 0 
z
" id="DejaVuSans-31"/>
      </defs>
      <g transform="translate(271.0584375 382.7984375)scale(0.1 -0.1)">
       <use xlink:href="#DejaVuSans-31"/>
       <use x="63.623046875" xlink:href="#DejaVuSans-2e"/>
       <use x="95.41015625" xlink:href="#DejaVuSans-30"/>
      </g>
     </g>
    </g>
    <g id="xtick_4">
     <g id="line2d_10">
      <path clip-path="url(#pab6ab58d54)" d="M 371.74 368.2 
L 371.74 10.8 
" style="fill:none;stroke:#999999;stroke-linecap:square;stroke-width:0.1;"/>
     </g>
     <g id="line2d_11">
      <g>
       <use style="stroke:#000000;" x="371.74" xlink:href="#m63270e8b9e" y="368.2"/>
      </g>
     </g>
     <g id="line2d_12">
      <g>
       <use style="stroke:#000000;" x="371.74" xlink:href="#m37c1457294" y="10.8"/>
      </g>
     </g>
     <g id="text_4">
      <!-- 1.5 -->
      <g transform="translate(363.7884375 382.7984375)scale(0.1 -0.1)">
       <use xlink:href="#DejaVuSans-31"/>
       <use x="63.623046875" xlink:href="#DejaVuSans-2e"/>
       <use x="95.41015625" xlink:href="#DejaVuSans-35"/>
      </g>
     </g>
    </g>
    <g id="xtick_5">
     <g id="line2d_13">
      <path clip-path="url(#pab6ab58d54)" d="M 464.47 368.2 
L 464.47 10.8 
" style="fill:none;stroke:#999999;stroke-linecap:square;stroke-width:0.1;"/>
     </g>
     <g id="line2d_14">
      <g>
       <use style="stroke:#000000;" x="464.47" xlink:href="#m63270e8b9e" y="368.2"/>
      </g>
     </g>
     <g id="line2d_15">
      <g>
       <use style="stroke:#000000;" x="464.47" xlink:href="#m37c1457294" y="10.8"/>
      </g>
     </g>
     <g id="text_5">
      <!-- 2.0 -->
      <defs>
       <path d="M 19.1875 8.296875 
L 53.609375 8.296875 
L 53.609375 0 
L 7.328125 0 
L 7.328125 8.296875 
Q 12.9375 14.109375 22.625 23.890625 
Q 32.328125 33.6875 34.8125 36.53125 
Q 39.546875 41.84375 41.421875 45.53125 
Q 43.3125 49.21875 43.3125 52.78125 
Q 43.3125 58.59375 39.234375 62.25 
Q 35.15625 65.921875 28.609375 65.921875 
Q 23.96875 65.921875 18.8125 64.3125 
Q 13.671875 62.703125 7.8125 59.421875 
L 7.8125 69.390625 
Q 13.765625 71.78125 18.9375 73 
Q 24.125 74.21875 28.421875 74.21875 
Q 39.75 74.21875 46.484375 68.546875 
Q 53.21875 62.890625 53.21875 53.421875 
Q 53.21875 48.921875 51.53125 44.890625 
Q 49.859375 40.875 45.40625 35.40625 
Q 44.1875 33.984375 37.640625 27.21875 
Q 31.109375 20.453125 19.1875 8.296875 
" id="DejaVuSans-32"/>
      </defs>
      <g transform="translate(456.5184375 382.7984375)scale(0.1 -0.1)">
       <use xlink:href="#DejaVuSans-32"/>
       <use x="63.623046875" xlink:href="#DejaVuSans-2e"/>
       <use x="95.41015625" xlink:href="#DejaVuSans-30"/>
      </g>
     </g>
    </g>
    <g id="xtick_6">
     <g id="line2d_16">
      <path clip-path="url(#pab6ab58d54)" d="M 557.2 368.2 
L 557.2 10.8 
" style="fill:none;stroke:#999999;stroke-linecap:square;stroke-width:0.1;"/>
     </g>
     <g id="line2d_17">
      <g>
       <use style="stroke:#000000;" x="557.2" xlink:href="#m63270e8b9e" y="368.2"/>
      </g>
     </g>
     <g id="line2d_18">
      <g>
       <use style="stroke:#000000;" x="557.2" xlink:href="#m37c1457294" y="10.8"/>
      </g>
     </g>
     <g id="text_6">
      <!-- 2.5 -->
      <g transform="translate(549.2484375 382.7984375)scale(0.1 -0.1)">
       <use xlink:href="#DejaVuSans-32"/>
       <use x="63.623046875" xlink:href="#DejaVuSans-2e"/>
       <use x="95.41015625" xlink:href="#DejaVuSans-35"/>
      </g>
     </g>
    </g>
   </g>
   <g id="matplotlib.axis_2">
    <g id="ytick_1">
     <g id="line2d_19">
      <defs>
       <path d="M 0 0 
L 1 0 
" id="me5a55095ed" style="stroke:#000000;"/>
      </defs>
      <g>
       <use style="stroke:#000000;" x="93.55" xlink:href="#me5a55095ed" y="348.344444444"/>
      </g>
     </g>
     <g id="line2d_20">
      <defs>
       <path d="M 0 0 
L -1 0 
" id="md02c6222ca" style="stroke:#000000;"/>
      </defs>
      <g>
       <use style="stroke:#000000;" x="557.2" xlink:href="#md02c6222ca" y="348.344444444"/>
      </g>
     </g>
     <g id="text_7">
      <!-- пристап -->
      <defs>
       <path d="M 56.296875 54.6875 
L 56.296875 0 
L 47.265625 0 
L 47.265625 47.515625 
L 18.109375 47.515625 
L 18.109375 0 
L 9.078125 0 
L 9.078125 54.6875 
z
" id="DejaVuSans-43f"/>
       <path d="M 48.78125 52.59375 
L 48.78125 44.1875 
Q 44.96875 46.296875 41.140625 47.34375 
Q 37.3125 48.390625 33.40625 48.390625 
Q 24.65625 48.390625 19.8125 42.84375 
Q 14.984375 37.3125 14.984375 27.296875 
Q 14.984375 17.28125 19.8125 11.734375 
Q 24.65625 6.203125 33.40625 6.203125 
Q 37.3125 6.203125 41.140625 7.25 
Q 44.96875 8.296875 48.78125 10.40625 
L 48.78125 2.09375 
Q 45.015625 0.34375 40.984375 -0.53125 
Q 36.96875 -1.421875 32.421875 -1.421875 
Q 20.0625 -1.421875 12.78125 6.34375 
Q 5.515625 14.109375 5.515625 27.296875 
Q 5.515625 40.671875 12.859375 48.328125 
Q 20.21875 56 33.015625 56 
Q 37.15625 56 41.109375 55.140625 
Q 45.0625 54.296875 48.78125 52.59375 
" id="DejaVuSans-441"/>
       <path d="M 18.109375 8.203125 
L 18.109375 -20.796875 
L 9.078125 -20.796875 
L 9.078125 54.6875 
L 18.109375 54.6875 
L 18.109375 46.390625 
Q 20.953125 51.265625 25.265625 53.625 
Q 29.59375 56 35.59375 56 
Q 45.5625 56 51.78125 48.09375 
Q 58.015625 40.1875 58.015625 27.296875 
Q 58.015625 14.40625 51.78125 6.484375 
Q 45.5625 -1.421875 35.59375 -1.421875 
Q 29.59375 -1.421875 25.265625 0.953125 
Q 20.953125 3.328125 18.109375 8.203125 
M 48.6875 27.296875 
Q 48.6875 37.203125 44.609375 42.84375 
Q 40.53125 48.484375 33.40625 48.484375 
Q 26.265625 48.484375 22.1875 42.84375 
Q 18.109375 37.203125 18.109375 27.296875 
Q 18.109375 17.390625 22.1875 11.75 
Q 26.265625 6.109375 33.40625 6.109375 
Q 40.53125 6.109375 44.609375 11.75 
Q 48.6875 17.390625 48.6875 27.296875 
" id="DejaVuSans-440"/>
       <path d="M 2.9375 54.6875 
L 55.328125 54.6875 
L 55.328125 47.515625 
L 33.546875 47.515625 
L 33.546875 0 
L 24.703125 0 
L 24.703125 47.515625 
L 2.9375 47.515625 
z
" id="DejaVuSans-442"/>
       <path d="M 34.28125 27.484375 
Q 23.390625 27.484375 19.1875 25 
Q 14.984375 22.515625 14.984375 16.5 
Q 14.984375 11.71875 18.140625 8.90625 
Q 21.296875 6.109375 26.703125 6.109375 
Q 34.1875 6.109375 38.703125 11.40625 
Q 43.21875 16.703125 43.21875 25.484375 
L 43.21875 27.484375 
z
M 52.203125 31.203125 
L 52.203125 0 
L 43.21875 0 
L 43.21875 8.296875 
Q 40.140625 3.328125 35.546875 0.953125 
Q 30.953125 -1.421875 24.3125 -1.421875 
Q 15.921875 -1.421875 10.953125 3.296875 
Q 6 8.015625 6 15.921875 
Q 6 25.140625 12.171875 29.828125 
Q 18.359375 34.515625 30.609375 34.515625 
L 43.21875 34.515625 
L 43.21875 35.40625 
Q 43.21875 41.609375 39.140625 45 
Q 35.0625 48.390625 27.6875 48.390625 
Q 23 48.390625 18.546875 47.265625 
Q 14.109375 46.140625 10.015625 43.890625 
L 10.015625 52.203125 
Q 14.9375 54.109375 19.578125 55.046875 
Q 24.21875 56 28.609375 56 
Q 40.484375 56 46.34375 49.84375 
Q 52.203125 43.703125 52.203125 31.203125 
" id="DejaVuSans-430"/>
       <path d="M 55.90625 54.6875 
L 55.90625 0 
L 46.96875 0 
L 46.96875 43.890625 
L 20.609375 0 
L 9.078125 0 
L 9.078125 54.6875 
L 18.015625 54.6875 
L 18.015625 10.890625 
L 44.34375 54.6875 
z
" id="DejaVuSans-438"/>
      </defs>
      <g transform="translate(43.1765625 351.103819444)scale(0.1 -0.1)">
       <use xlink:href="#DejaVuSans-43f"/>
       <use x="65.380859375" xlink:href="#DejaVuSans-440"/>
       <use x="128.857421875" xlink:href="#DejaVuSans-438"/>
       <use x="193.84765625" xlink:href="#DejaVuSans-441"/>
       <use x="248.828125" xlink:href="#DejaVuSans-442"/>
       <use x="307.080078125" xlink:href="#DejaVuSans-430"/>
       <use x="368.359375" xlink:href="#DejaVuSans-43f"/>
      </g>
     </g>
    </g>
    <g id="ytick_2">
     <g id="line2d_21">
      <g>
       <use style="stroke:#000000;" x="93.55" xlink:href="#me5a55095ed" y="328.488888889"/>
      </g>
     </g>
     <g id="line2d_22">
      <g>
       <use style="stroke:#000000;" x="557.2" xlink:href="#md02c6222ca" y="328.488888889"/>
      </g>
     </g>
     <g id="text_8">
      <!-- пазар -->
      <defs>
       <path d="M 34.46875 29.5 
Q 40.53125 28.328125 43.890625 24.75 
Q 47.265625 21.1875 47.265625 15.921875 
Q 47.265625 7.46875 40.96875 3.015625 
Q 34.671875 -1.421875 23.046875 -1.421875 
Q 19.140625 -1.421875 15.015625 -0.734375 
Q 10.890625 -0.046875 6.5 1.3125 
L 6.5 9.671875 
Q 9.96875 7.859375 14.109375 6.953125 
Q 18.265625 6.0625 22.796875 6.0625 
Q 30.171875 6.0625 34.296875 8.796875 
Q 38.421875 11.53125 38.421875 15.921875 
Q 38.421875 20.21875 34.765625 22.828125 
Q 31.109375 25.4375 24.421875 25.4375 
L 17.1875 25.4375 
L 17.1875 32.859375 
L 24.75 32.859375 
Q 30.421875 32.859375 33.71875 35.03125 
Q 37.015625 37.203125 37.015625 40.625 
Q 37.015625 43.75 33.609375 46 
Q 30.21875 48.25 24.421875 48.25 
Q 20.953125 48.25 17.015625 47.609375 
Q 13.09375 46.96875 8.34375 45.5625 
L 8.34375 53.71875 
Q 13.140625 54.890625 17.28125 55.46875 
Q 21.4375 56.0625 25.140625 56.0625 
Q 34.71875 56.0625 40.25 52.21875 
Q 45.796875 48.390625 45.796875 41.5 
Q 45.796875 36.96875 42.859375 33.8125 
Q 39.9375 30.671875 34.46875 29.5 
" id="DejaVuSans-437"/>
      </defs>
      <g transform="translate(56.090625 331.248263889)scale(0.1 -0.1)">
       <use xlink:href="#DejaVuSans-43f"/>
       <use x="65.380859375" xlink:href="#DejaVuSans-430"/>
       <use x="126.66015625" xlink:href="#DejaVuSans-437"/>
       <use x="179.833984375" xlink:href="#DejaVuSans-430"/>
       <use x="241.11328125" xlink:href="#DejaVuSans-440"/>
      </g>
     </g>
    </g>
    <g id="ytick_3">
     <g id="line2d_23">
      <g>
       <use style="stroke:#000000;" x="93.55" xlink:href="#me5a55095ed" y="308.633333333"/>
      </g>
     </g>
     <g id="line2d_24">
      <g>
       <use style="stroke:#000000;" x="557.2" xlink:href="#md02c6222ca" y="308.633333333"/>
      </g>
     </g>
     <g id="text_9">
      <!-- постапка -->
      <defs>
       <path d="M 9.078125 54.6875 
L 18.015625 54.6875 
L 18.015625 29 
L 43.359375 54.6875 
L 54.390625 54.6875 
L 33.5 33.546875 
L 57.078125 0 
L 47.015625 0 
L 27.640625 27.59375 
L 18.015625 17.828125 
L 18.015625 0 
L 9.078125 0 
z
" id="DejaVuSans-43a"/>
       <path d="M 30.609375 48.390625 
Q 23.390625 48.390625 19.1875 42.75 
Q 14.984375 37.109375 14.984375 27.296875 
Q 14.984375 17.484375 19.15625 11.84375 
Q 23.34375 6.203125 30.609375 6.203125 
Q 37.796875 6.203125 41.984375 11.859375 
Q 46.1875 17.53125 46.1875 27.296875 
Q 46.1875 37.015625 41.984375 42.703125 
Q 37.796875 48.390625 30.609375 48.390625 
M 30.609375 56 
Q 42.328125 56 49.015625 48.375 
Q 55.71875 40.765625 55.71875 27.296875 
Q 55.71875 13.875 49.015625 6.21875 
Q 42.328125 -1.421875 30.609375 -1.421875 
Q 18.84375 -1.421875 12.171875 6.21875 
Q 5.515625 13.875 5.515625 27.296875 
Q 5.515625 40.765625 12.171875 48.375 
Q 18.84375 56 30.609375 56 
" id="DejaVuSans-43e"/>
      </defs>
      <g transform="translate(37.7359375 311.392708333)scale(0.1 -0.1)">
       <use xlink:href="#DejaVuSans-43f"/>
       <use x="65.380859375" xlink:href="#DejaVuSans-43e"/>
       <use x="126.5625" xlink:href="#DejaVuSans-441"/>
       <use x="181.54296875" xlink:href="#DejaVuSans-442"/>
       <use x="239.794921875" xlink:href="#DejaVuSans-430"/>
       <use x="301.07421875" xlink:href="#DejaVuSans-43f"/>
       <use x="366.455078125" xlink:href="#DejaVuSans-43a"/>
       <use x="426.85546875" xlink:href="#DejaVuSans-430"/>
      </g>
     </g>
    </g>
    <g id="ytick_4">
     <g id="line2d_25">
      <g>
       <use style="stroke:#000000;" x="93.55" xlink:href="#me5a55095ed" y="288.777777778"/>
      </g>
     </g>
     <g id="line2d_26">
      <g>
       <use style="stroke:#000000;" x="557.2" xlink:href="#md02c6222ca" y="288.777777778"/>
      </g>
     </g>
     <g id="text_10">
      <!-- основа -->
      <defs>
       <path d="M 18.0625 25.203125 
L 18.0625 7.171875 
L 30.859375 7.171875 
Q 37.015625 7.171875 40.234375 9.484375 
Q 43.453125 11.8125 43.453125 16.21875 
Q 43.453125 20.609375 40.234375 22.90625 
Q 37.015625 25.203125 30.859375 25.203125 
z
M 18.0625 47.515625 
L 18.0625 32.375 
L 29.890625 32.375 
Q 34.96875 32.375 38.1875 34.390625 
Q 41.40625 36.421875 41.40625 40.046875 
Q 41.40625 43.65625 38.1875 45.578125 
Q 34.96875 47.515625 29.890625 47.515625 
z
M 9.078125 54.6875 
L 30.46875 54.6875 
Q 40.09375 54.6875 45.265625 51.171875 
Q 50.4375 47.65625 50.4375 41.15625 
Q 50.4375 36.140625 47.796875 33.171875 
Q 45.171875 30.21875 39.984375 29.5 
Q 46.1875 28.328125 49.609375 24.609375 
Q 53.03125 20.90625 53.03125 15.328125 
Q 53.03125 8.015625 47.390625 4 
Q 41.75 0 31.296875 0 
L 9.078125 0 
z
" id="DejaVuSans-432"/>
       <path d="M 9.078125 54.6875 
L 18.109375 54.6875 
L 18.109375 32.375 
L 47.265625 32.375 
L 47.265625 54.6875 
L 56.296875 54.6875 
L 56.296875 0 
L 47.265625 0 
L 47.265625 25.203125 
L 18.109375 25.203125 
L 18.109375 0 
L 9.078125 0 
z
" id="DejaVuSans-43d"/>
      </defs>
      <g transform="translate(50.2546875 291.537152778)scale(0.1 -0.1)">
       <use xlink:href="#DejaVuSans-43e"/>
       <use x="61.181640625" xlink:href="#DejaVuSans-441"/>
       <use x="116.162109375" xlink:href="#DejaVuSans-43d"/>
       <use x="181.54296875" xlink:href="#DejaVuSans-43e"/>
       <use x="242.724609375" xlink:href="#DejaVuSans-432"/>
       <use x="301.66015625" xlink:href="#DejaVuSans-430"/>
      </g>
     </g>
    </g>
    <g id="ytick_5">
     <g id="line2d_27">
      <g>
       <use style="stroke:#000000;" x="93.55" xlink:href="#me5a55095ed" y="268.922222222"/>
      </g>
     </g>
     <g id="line2d_28">
      <g>
       <use style="stroke:#000000;" x="557.2" xlink:href="#md02c6222ca" y="268.922222222"/>
      </g>
     </g>
     <g id="text_11">
      <!-- помош -->
      <defs>
       <path d="M 50.25 7.171875 
L 73.390625 7.171875 
L 73.390625 54.6875 
L 82.421875 54.6875 
L 82.421875 0 
L 9.078125 0 
L 9.078125 54.6875 
L 18.109375 54.6875 
L 18.109375 7.171875 
L 41.21875 7.171875 
L 41.21875 54.6875 
L 50.25 54.6875 
z
" id="DejaVuSans-448"/>
       <path d="M 9.078125 54.6875 
L 22.21875 54.6875 
L 37.75 18.0625 
L 53.328125 54.6875 
L 66.359375 54.6875 
L 66.359375 0 
L 57.328125 0 
L 57.328125 46.09375 
L 42.234375 10.5 
L 33.25 10.5 
L 18.109375 46.09375 
L 18.109375 0 
L 9.078125 0 
z
" id="DejaVuSans-43c"/>
      </defs>
      <g transform="translate(51.08125 271.681597222)scale(0.1 -0.1)">
       <use xlink:href="#DejaVuSans-43f"/>
       <use x="65.380859375" xlink:href="#DejaVuSans-43e"/>
       <use x="126.5625" xlink:href="#DejaVuSans-43c"/>
       <use x="202.001953125" xlink:href="#DejaVuSans-43e"/>
       <use x="263.18359375" xlink:href="#DejaVuSans-448"/>
      </g>
     </g>
    </g>
    <g id="ytick_6">
     <g id="line2d_29">
      <g>
       <use style="stroke:#000000;" x="93.55" xlink:href="#me5a55095ed" y="249.066666667"/>
      </g>
     </g>
     <g id="line2d_30">
      <g>
       <use style="stroke:#000000;" x="557.2" xlink:href="#md02c6222ca" y="249.066666667"/>
      </g>
     </g>
     <g id="text_12">
      <!-- спорт -->
      <g transform="translate(56.221875 251.826041667)scale(0.1 -0.1)">
       <use xlink:href="#DejaVuSans-441"/>
       <use x="54.98046875" xlink:href="#DejaVuSans-43f"/>
       <use x="120.361328125" xlink:href="#DejaVuSans-43e"/>
       <use x="181.54296875" xlink:href="#DejaVuSans-440"/>
       <use x="245.01953125" xlink:href="#DejaVuSans-442"/>
      </g>
     </g>
    </g>
    <g id="ytick_7">
     <g id="line2d_31">
      <g>
       <use style="stroke:#000000;" x="93.55" xlink:href="#me5a55095ed" y="229.211111111"/>
      </g>
     </g>
     <g id="line2d_32">
      <g>
       <use style="stroke:#000000;" x="557.2" xlink:href="#md02c6222ca" y="229.211111111"/>
      </g>
     </g>
     <g id="text_13">
      <!-- соодветен -->
      <defs>
       <path d="M 21.625 7.171875 
L 47.703125 7.171875 
L 47.703125 47.515625 
L 28.8125 47.515625 
L 28.8125 40.671875 
Q 28.8125 20.5625 23.046875 9.8125 
z
M 8.59375 7.171875 
Q 13.03125 9.125 14.984375 13.28125 
Q 19.78125 23.578125 19.78125 44.34375 
L 19.78125 54.6875 
L 56.734375 54.6875 
L 56.734375 7.171875 
L 63.921875 7.171875 
L 63.921875 -13.8125 
L 56.734375 -13.8125 
L 56.734375 0 
L 12.40625 0 
L 12.40625 -13.8125 
L 5.21875 -13.8125 
L 5.21875 7.171875 
z
" id="DejaVuSans-434"/>
       <path d="M 56.203125 29.59375 
L 56.203125 25.203125 
L 14.890625 25.203125 
Q 15.484375 15.921875 20.484375 11.0625 
Q 25.484375 6.203125 34.421875 6.203125 
Q 39.59375 6.203125 44.453125 7.46875 
Q 49.3125 8.734375 54.109375 11.28125 
L 54.109375 2.78125 
Q 49.265625 0.734375 44.1875 -0.34375 
Q 39.109375 -1.421875 33.890625 -1.421875 
Q 20.796875 -1.421875 13.15625 6.1875 
Q 5.515625 13.8125 5.515625 26.8125 
Q 5.515625 40.234375 12.765625 48.109375 
Q 20.015625 56 32.328125 56 
Q 43.359375 56 49.78125 48.890625 
Q 56.203125 41.796875 56.203125 29.59375 
M 47.21875 32.234375 
Q 47.125 39.59375 43.09375 43.984375 
Q 39.0625 48.390625 32.421875 48.390625 
Q 24.90625 48.390625 20.390625 44.140625 
Q 15.875 39.890625 15.1875 32.171875 
z
" id="DejaVuSans-435"/>
      </defs>
      <g transform="translate(31.3375 231.970486111)scale(0.1 -0.1)">
       <use xlink:href="#DejaVuSans-441"/>
       <use x="54.98046875" xlink:href="#DejaVuSans-43e"/>
       <use x="116.162109375" xlink:href="#DejaVuSans-43e"/>
       <use x="177.34375" xlink:href="#DejaVuSans-434"/>
       <use x="246.484375" xlink:href="#DejaVuSans-432"/>
       <use x="305.419921875" xlink:href="#DejaVuSans-435"/>
       <use x="366.943359375" xlink:href="#DejaVuSans-442"/>
       <use x="425.1953125" xlink:href="#DejaVuSans-435"/>
       <use x="486.71875" xlink:href="#DejaVuSans-43d"/>
      </g>
     </g>
    </g>
    <g id="ytick_8">
     <g id="line2d_33">
      <g>
       <use style="stroke:#000000;" x="93.55" xlink:href="#me5a55095ed" y="209.355555556"/>
      </g>
     </g>
     <g id="line2d_34">
      <g>
       <use style="stroke:#000000;" x="557.2" xlink:href="#md02c6222ca" y="209.355555556"/>
      </g>
     </g>
     <g id="text_14">
      <!-- вработување -->
      <defs>
       <path d="M 31.109375 56 
Q 42.828125 56 49.515625 48.375 
Q 56.203125 40.765625 56.203125 27.296875 
Q 56.203125 13.875 49.515625 6.21875 
Q 42.828125 -1.421875 31.109375 -1.421875 
Q 19.34375 -1.421875 12.84375 6 
Q 6.34375 13.421875 6 27.296875 
L 5.71875 38.484375 
Q 5.46875 44.28125 5.46875 46.296875 
Q 5.46875 54.109375 8.296875 59.859375 
Q 12.75 68.890625 20.4375 72.796875 
Q 28.125 76.703125 41.015625 76.8125 
Q 46.96875 76.859375 49.609375 77.6875 
L 52.09375 70.5625 
Q 49.703125 69.578125 47.515625 69.53125 
L 35.296875 68.703125 
Q 29.15625 68.265625 25.4375 66.109375 
Q 15.71875 60.40625 14.796875 52.9375 
L 14.453125 50.203125 
Q 20.796875 56 31.109375 56 
M 31.109375 48.390625 
Q 23.875 48.390625 19.671875 42.75 
Q 15.484375 37.109375 15.484375 27.296875 
Q 15.484375 17.484375 19.65625 11.84375 
Q 23.828125 6.203125 31.109375 6.203125 
Q 38.28125 6.203125 42.484375 11.859375 
Q 46.6875 17.53125 46.6875 27.296875 
Q 46.6875 37.015625 42.484375 42.703125 
Q 38.28125 48.390625 31.109375 48.390625 
" id="DejaVuSans-431"/>
       <path d="M 32.171875 -5.078125 
Q 28.375 -14.84375 24.75 -17.8125 
Q 21.140625 -20.796875 15.09375 -20.796875 
L 7.90625 -20.796875 
L 7.90625 -13.28125 
L 13.1875 -13.28125 
Q 16.890625 -13.28125 18.9375 -11.515625 
Q 21 -9.765625 23.484375 -3.21875 
L 25.09375 0.875 
L 2.984375 54.6875 
L 12.5 54.6875 
L 29.59375 11.921875 
L 46.6875 54.6875 
L 56.203125 54.6875 
z
" id="DejaVuSans-443"/>
       <path d="M 53.8125 54.6875 
L 53.8125 32.375 
L 62.15625 32.375 
Q 72.609375 32.375 78.265625 28.390625 
Q 83.9375 24.421875 83.9375 16.21875 
Q 83.9375 8.015625 78.296875 4 
Q 72.65625 0 62.203125 0 
L 44.78125 0 
L 44.78125 25.203125 
L 18.109375 25.203125 
L 18.109375 0 
L 9.078125 0 
L 9.078125 54.6875 
L 18.109375 54.6875 
L 18.109375 32.375 
L 44.78125 32.375 
L 44.78125 54.6875 
z
M 61.765625 7.171875 
Q 67.921875 7.171875 71.140625 9.484375 
Q 74.359375 11.8125 74.359375 16.21875 
Q 74.359375 20.609375 71.140625 22.90625 
Q 67.921875 25.203125 61.765625 25.203125 
L 53.8125 25.203125 
L 53.8125 7.171875 
z
" id="DejaVuSans-45a"/>
      </defs>
      <g transform="translate(16.990625 212.200086806)scale(0.1 -0.1)">
       <use xlink:href="#DejaVuSans-432"/>
       <use x="58.935546875" xlink:href="#DejaVuSans-440"/>
       <use x="122.412109375" xlink:href="#DejaVuSans-430"/>
       <use x="183.69140625" xlink:href="#DejaVuSans-431"/>
       <use x="245.361328125" xlink:href="#DejaVuSans-43e"/>
       <use x="306.54296875" xlink:href="#DejaVuSans-442"/>
       <use x="364.794921875" xlink:href="#DejaVuSans-443"/>
       <use x="423.974609375" xlink:href="#DejaVuSans-432"/>
       <use x="482.91015625" xlink:href="#DejaVuSans-430"/>
       <use x="544.189453125" xlink:href="#DejaVuSans-45a"/>
       <use x="634.033203125" xlink:href="#DejaVuSans-435"/>
      </g>
     </g>
    </g>
    <g id="ytick_9">
     <g id="line2d_35">
      <g>
       <use style="stroke:#000000;" x="93.55" xlink:href="#me5a55095ed" y="189.5"/>
      </g>
     </g>
     <g id="line2d_36">
      <g>
       <use style="stroke:#000000;" x="557.2" xlink:href="#md02c6222ca" y="189.5"/>
      </g>
     </g>
     <g id="text_15">
      <!-- мрежа -->
      <defs>
       <path d="M 40.578125 54.6875 
L 49.515625 54.6875 
L 49.515625 29 
L 73.390625 54.6875 
L 83.84375 54.6875 
L 64.203125 33.640625 
L 86.671875 0 
L 77.046875 0 
L 58.640625 27.640625 
L 49.515625 17.828125 
L 49.515625 0 
L 40.578125 0 
L 40.578125 17.828125 
L 31.453125 27.640625 
L 13.03125 0 
L 3.421875 0 
L 25.875 33.640625 
L 6.25 54.6875 
L 16.703125 54.6875 
L 40.578125 29 
z
" id="DejaVuSans-436"/>
      </defs>
      <g transform="translate(51.3671875 192.259375)scale(0.1 -0.1)">
       <use xlink:href="#DejaVuSans-43c"/>
       <use x="75.439453125" xlink:href="#DejaVuSans-440"/>
       <use x="138.916015625" xlink:href="#DejaVuSans-435"/>
       <use x="200.439453125" xlink:href="#DejaVuSans-436"/>
       <use x="290.52734375" xlink:href="#DejaVuSans-430"/>
      </g>
     </g>
    </g>
    <g id="ytick_10">
     <g id="line2d_37">
      <g>
       <use style="stroke:#000000;" x="93.55" xlink:href="#me5a55095ed" y="169.644444444"/>
      </g>
     </g>
     <g id="line2d_38">
      <g>
       <use style="stroke:#000000;" x="557.2" xlink:href="#md02c6222ca" y="169.644444444"/>
      </g>
     </g>
     <g id="text_16">
      <!-- обезбедување -->
      <g transform="translate(10.48125 172.488975694)scale(0.1 -0.1)">
       <use xlink:href="#DejaVuSans-43e"/>
       <use x="61.181640625" xlink:href="#DejaVuSans-431"/>
       <use x="122.8515625" xlink:href="#DejaVuSans-435"/>
       <use x="184.375" xlink:href="#DejaVuSans-437"/>
       <use x="237.548828125" xlink:href="#DejaVuSans-431"/>
       <use x="299.21875" xlink:href="#DejaVuSans-435"/>
       <use x="360.7421875" xlink:href="#DejaVuSans-434"/>
       <use x="429.8828125" xlink:href="#DejaVuSans-443"/>
       <use x="489.0625" xlink:href="#DejaVuSans-432"/>
       <use x="547.998046875" xlink:href="#DejaVuSans-430"/>
       <use x="609.27734375" xlink:href="#DejaVuSans-45a"/>
       <use x="699.12109375" xlink:href="#DejaVuSans-435"/>
      </g>
     </g>
    </g>
    <g id="ytick_11">
     <g id="line2d_39">
      <g>
       <use style="stroke:#000000;" x="93.55" xlink:href="#me5a55095ed" y="149.788888889"/>
      </g>
     </g>
     <g id="line2d_40">
      <g>
       <use style="stroke:#000000;" x="557.2" xlink:href="#md02c6222ca" y="149.788888889"/>
      </g>
     </g>
     <g id="text_17">
      <!-- област -->
      <defs>
       <path d="M 3.71875 0 
L 3.71875 7.46875 
Q 12.59375 8.84375 15.328125 14.984375 
Q 18.65625 23.640625 18.65625 45.75 
L 18.65625 54.6875 
L 55.609375 54.6875 
L 55.609375 0 
L 46.625 0 
L 46.625 47.515625 
L 27.640625 47.515625 
L 27.640625 42.09375 
Q 27.640625 21 23.34375 11.53125 
Q 18.75 1.421875 3.71875 0 
" id="DejaVuSans-43b"/>
      </defs>
      <g transform="translate(50.4203125 152.548263889)scale(0.1 -0.1)">
       <use xlink:href="#DejaVuSans-43e"/>
       <use x="61.181640625" xlink:href="#DejaVuSans-431"/>
       <use x="122.8515625" xlink:href="#DejaVuSans-43b"/>
       <use x="186.767578125" xlink:href="#DejaVuSans-430"/>
       <use x="248.046875" xlink:href="#DejaVuSans-441"/>
       <use x="303.02734375" xlink:href="#DejaVuSans-442"/>
      </g>
     </g>
    </g>
    <g id="ytick_12">
     <g id="line2d_41">
      <g>
       <use style="stroke:#000000;" x="93.55" xlink:href="#me5a55095ed" y="129.933333333"/>
      </g>
     </g>
     <g id="line2d_42">
      <g>
       <use style="stroke:#000000;" x="557.2" xlink:href="#md02c6222ca" y="129.933333333"/>
      </g>
     </g>
     <g id="text_18">
      <!-- обезбеди -->
      <g transform="translate(37.0609375 132.692708333)scale(0.1 -0.1)">
       <use xlink:href="#DejaVuSans-43e"/>
       <use x="61.181640625" xlink:href="#DejaVuSans-431"/>
       <use x="122.8515625" xlink:href="#DejaVuSans-435"/>
       <use x="184.375" xlink:href="#DejaVuSans-437"/>
       <use x="237.548828125" xlink:href="#DejaVuSans-431"/>
       <use x="299.21875" xlink:href="#DejaVuSans-435"/>
       <use x="360.7421875" xlink:href="#DejaVuSans-434"/>
       <use x="429.8828125" xlink:href="#DejaVuSans-438"/>
      </g>
     </g>
    </g>
    <g id="ytick_13">
     <g id="line2d_43">
      <g>
       <use style="stroke:#000000;" x="93.55" xlink:href="#me5a55095ed" y="110.077777778"/>
      </g>
     </g>
     <g id="line2d_44">
      <g>
       <use style="stroke:#000000;" x="557.2" xlink:href="#md02c6222ca" y="110.077777778"/>
      </g>
     </g>
     <g id="text_19">
      <!-- овие -->
      <g transform="translate(61.8859375 112.837152778)scale(0.1 -0.1)">
       <use xlink:href="#DejaVuSans-43e"/>
       <use x="61.181640625" xlink:href="#DejaVuSans-432"/>
       <use x="120.1171875" xlink:href="#DejaVuSans-438"/>
       <use x="185.107421875" xlink:href="#DejaVuSans-435"/>
      </g>
     </g>
    </g>
    <g id="ytick_14">
     <g id="line2d_45">
      <g>
       <use style="stroke:#000000;" x="93.55" xlink:href="#me5a55095ed" y="90.2222222222"/>
      </g>
     </g>
     <g id="line2d_46">
      <g>
       <use style="stroke:#000000;" x="557.2" xlink:href="#md02c6222ca" y="90.2222222222"/>
      </g>
     </g>
     <g id="text_20">
      <!-- култура -->
      <g transform="translate(43.978125 92.9815972222)scale(0.1 -0.1)">
       <use xlink:href="#DejaVuSans-43a"/>
       <use x="60.400390625" xlink:href="#DejaVuSans-443"/>
       <use x="119.580078125" xlink:href="#DejaVuSans-43b"/>
       <use x="183.49609375" xlink:href="#DejaVuSans-442"/>
       <use x="241.748046875" xlink:href="#DejaVuSans-443"/>
       <use x="300.927734375" xlink:href="#DejaVuSans-440"/>
       <use x="364.404296875" xlink:href="#DejaVuSans-430"/>
      </g>
     </g>
    </g>
    <g id="ytick_15">
     <g id="line2d_47">
      <g>
       <use style="stroke:#000000;" x="93.55" xlink:href="#me5a55095ed" y="70.3666666667"/>
      </g>
     </g>
     <g id="line2d_48">
      <g>
       <use style="stroke:#000000;" x="557.2" xlink:href="#md02c6222ca" y="70.3666666667"/>
      </g>
     </g>
     <g id="text_21">
      <!-- регионален -->
      <defs>
       <path d="M 9.078125 0 
L 9.078125 54.6875 
L 47.65625 54.6875 
L 47.65625 47.515625 
L 18.109375 47.515625 
L 18.109375 0 
z
" id="DejaVuSans-433"/>
      </defs>
      <g transform="translate(24.428125 73.1260416667)scale(0.1 -0.1)">
       <use xlink:href="#DejaVuSans-440"/>
       <use x="63.4765625" xlink:href="#DejaVuSans-435"/>
       <use x="125.0" xlink:href="#DejaVuSans-433"/>
       <use x="177.5390625" xlink:href="#DejaVuSans-438"/>
       <use x="242.529296875" xlink:href="#DejaVuSans-43e"/>
       <use x="303.7109375" xlink:href="#DejaVuSans-43d"/>
       <use x="369.091796875" xlink:href="#DejaVuSans-430"/>
       <use x="430.37109375" xlink:href="#DejaVuSans-43b"/>
       <use x="494.287109375" xlink:href="#DejaVuSans-435"/>
       <use x="555.810546875" xlink:href="#DejaVuSans-43d"/>
      </g>
     </g>
    </g>
    <g id="ytick_16">
     <g id="line2d_49">
      <g>
       <use style="stroke:#000000;" x="93.55" xlink:href="#me5a55095ed" y="50.5111111111"/>
      </g>
     </g>
     <g id="line2d_50">
      <g>
       <use style="stroke:#000000;" x="557.2" xlink:href="#md02c6222ca" y="50.5111111111"/>
      </g>
     </g>
     <g id="text_22">
      <!-- локален -->
      <g transform="translate(42.7875 53.2704861111)scale(0.1 -0.1)">
       <use xlink:href="#DejaVuSans-43b"/>
       <use x="63.916015625" xlink:href="#DejaVuSans-43e"/>
       <use x="125.09765625" xlink:href="#DejaVuSans-43a"/>
       <use x="185.498046875" xlink:href="#DejaVuSans-430"/>
       <use x="246.77734375" xlink:href="#DejaVuSans-43b"/>
       <use x="310.693359375" xlink:href="#DejaVuSans-435"/>
       <use x="372.216796875" xlink:href="#DejaVuSans-43d"/>
      </g>
     </g>
    </g>
    <g id="ytick_17">
     <g id="line2d_51">
      <g>
       <use style="stroke:#000000;" x="93.55" xlink:href="#me5a55095ed" y="30.6555555556"/>
      </g>
     </g>
     <g id="line2d_52">
      <g>
       <use style="stroke:#000000;" x="557.2" xlink:href="#md02c6222ca" y="30.6555555556"/>
      </g>
     </g>
     <g id="text_23">
      <!-- основен -->
      <g transform="translate(43.6921875 33.4149305556)scale(0.1 -0.1)">
       <use xlink:href="#DejaVuSans-43e"/>
       <use x="61.181640625" xlink:href="#DejaVuSans-441"/>
       <use x="116.162109375" xlink:href="#DejaVuSans-43d"/>
       <use x="181.54296875" xlink:href="#DejaVuSans-43e"/>
       <use x="242.724609375" xlink:href="#DejaVuSans-432"/>
       <use x="301.66015625" xlink:href="#DejaVuSans-435"/>
       <use x="363.18359375" xlink:href="#DejaVuSans-43d"/>
      </g>
     </g>
    </g>
   </g>
   <g id="legend_1">
    <g id="patch_41">
     <path d="M 313.157813 363.2 
L 552.2 363.2 
L 552.2 330.503125 
L 313.157813 330.503125 
z
" style="fill:#ffffff;stroke:#000000;stroke-linejoin:miter;stroke-width:0.3;"/>
    </g>
    <g id="patch_42">
     <path d="M 317.157813 342.271875 
L 337.157813 342.271875 
L 337.157813 335.271875 
L 317.157813 335.271875 
z
" style="fill:#ff0000;stroke:#000000;stroke-linejoin:miter;stroke-width:0.3;"/>
    </g>
    <g id="text_24">
     <!-- Слично застапени зборови (ВМРО), ‰ -->
     <defs>
      <path d="M 11.71875 12.40625 
L 22.015625 12.40625 
L 22.015625 4 
L 14.015625 -11.625 
L 7.71875 -11.625 
L 11.71875 4 
z
" id="DejaVuSans-2c"/>
      <path d="M 39.40625 66.21875 
Q 28.65625 66.21875 22.328125 58.203125 
Q 16.015625 50.203125 16.015625 36.375 
Q 16.015625 22.609375 22.328125 14.59375 
Q 28.65625 6.59375 39.40625 6.59375 
Q 50.140625 6.59375 56.421875 14.59375 
Q 62.703125 22.609375 62.703125 36.375 
Q 62.703125 50.203125 56.421875 58.203125 
Q 50.140625 66.21875 39.40625 66.21875 
M 39.40625 74.21875 
Q 54.734375 74.21875 63.90625 63.9375 
Q 73.09375 53.65625 73.09375 36.375 
Q 73.09375 19.140625 63.90625 8.859375 
Q 54.734375 -1.421875 39.40625 -1.421875 
Q 24.03125 -1.421875 14.8125 8.828125 
Q 5.609375 19.09375 5.609375 36.375 
Q 5.609375 53.65625 14.8125 63.9375 
Q 24.03125 74.21875 39.40625 74.21875 
" id="DejaVuSans-41e"/>
      <path d="M 9.8125 72.90625 
L 24.515625 72.90625 
L 43.109375 23.296875 
L 61.8125 72.90625 
L 76.515625 72.90625 
L 76.515625 0 
L 66.890625 0 
L 66.890625 64.015625 
L 48.09375 14.015625 
L 38.1875 14.015625 
L 19.390625 64.015625 
L 19.390625 0 
L 9.8125 0 
z
" id="DejaVuSans-41c"/>
      <path d="M 41.015625 0 
L 41.015625 23 
L 24.265625 23 
Q 16.796875 23 11.8125 27.640625 
Q 7.328125 31.84375 7.328125 40.828125 
L 7.328125 54.6875 
L 16.3125 54.6875 
L 16.3125 41.65625 
Q 16.3125 35.9375 18.84375 33.0625 
Q 21.4375 30.171875 26.515625 30.171875 
L 41.015625 30.171875 
L 41.015625 54.6875 
L 50 54.6875 
L 50 0 
z
" id="DejaVuSans-447"/>
      <path d="M 19.671875 64.796875 
L 19.671875 37.40625 
L 32.078125 37.40625 
Q 38.96875 37.40625 42.71875 40.96875 
Q 46.484375 44.53125 46.484375 51.125 
Q 46.484375 57.671875 42.71875 61.234375 
Q 38.96875 64.796875 32.078125 64.796875 
z
M 9.8125 72.90625 
L 32.078125 72.90625 
Q 44.34375 72.90625 50.609375 67.359375 
Q 56.890625 61.8125 56.890625 51.125 
Q 56.890625 40.328125 50.609375 34.8125 
Q 44.34375 29.296875 32.078125 29.296875 
L 19.671875 29.296875 
L 19.671875 0 
L 9.8125 0 
z
" id="DejaVuSans-420"/>
      <path id="DejaVuSans-20"/>
      <path d="M 19.671875 34.8125 
L 19.671875 8.109375 
L 35.5 8.109375 
Q 43.453125 8.109375 47.28125 11.40625 
Q 51.125 14.703125 51.125 21.484375 
Q 51.125 28.328125 47.28125 31.5625 
Q 43.453125 34.8125 35.5 34.8125 
z
M 19.671875 64.796875 
L 19.671875 42.828125 
L 34.28125 42.828125 
Q 41.5 42.828125 45.03125 45.53125 
Q 48.578125 48.25 48.578125 53.8125 
Q 48.578125 59.328125 45.03125 62.0625 
Q 41.5 64.796875 34.28125 64.796875 
z
M 9.8125 72.90625 
L 35.015625 72.90625 
Q 46.296875 72.90625 52.390625 68.21875 
Q 58.5 63.53125 58.5 54.890625 
Q 58.5 48.1875 55.375 44.234375 
Q 52.25 40.28125 46.1875 39.3125 
Q 53.46875 37.75 57.5 32.78125 
Q 61.53125 27.828125 61.53125 20.40625 
Q 61.53125 10.640625 54.890625 5.3125 
Q 48.25 0 35.984375 0 
L 9.8125 0 
z
" id="DejaVuSans-412"/>
      <path d="M 64.40625 67.28125 
L 64.40625 56.890625 
Q 59.421875 61.53125 53.78125 63.8125 
Q 48.140625 66.109375 41.796875 66.109375 
Q 29.296875 66.109375 22.65625 58.46875 
Q 16.015625 50.828125 16.015625 36.375 
Q 16.015625 21.96875 22.65625 14.328125 
Q 29.296875 6.6875 41.796875 6.6875 
Q 48.140625 6.6875 53.78125 8.984375 
Q 59.421875 11.28125 64.40625 15.921875 
L 64.40625 5.609375 
Q 59.234375 2.09375 53.4375 0.328125 
Q 47.65625 -1.421875 41.21875 -1.421875 
Q 24.65625 -1.421875 15.125 8.703125 
Q 5.609375 18.84375 5.609375 36.375 
Q 5.609375 53.953125 15.125 64.078125 
Q 24.65625 74.21875 41.21875 74.21875 
Q 47.75 74.21875 53.53125 72.484375 
Q 59.328125 70.75 64.40625 67.28125 
" id="DejaVuSans-421"/>
      <path d="M 31 75.875 
Q 24.46875 64.65625 21.28125 53.65625 
Q 18.109375 42.671875 18.109375 31.390625 
Q 18.109375 20.125 21.3125 9.0625 
Q 24.515625 -2 31 -13.1875 
L 23.1875 -13.1875 
Q 15.875 -1.703125 12.234375 9.375 
Q 8.59375 20.453125 8.59375 31.390625 
Q 8.59375 42.28125 12.203125 53.3125 
Q 15.828125 64.359375 23.1875 75.875 
z
" id="DejaVuSans-28"/>
      <path d="M 8.015625 75.875 
L 15.828125 75.875 
Q 23.140625 64.359375 26.78125 53.3125 
Q 30.421875 42.28125 30.421875 31.390625 
Q 30.421875 20.453125 26.78125 9.375 
Q 23.140625 -1.703125 15.828125 -13.1875 
L 8.015625 -13.1875 
Q 14.5 -2 17.703125 9.0625 
Q 20.90625 20.125 20.90625 31.390625 
Q 20.90625 42.671875 17.703125 53.65625 
Q 14.5 64.65625 8.015625 75.875 
" id="DejaVuSans-29"/>
      <path d="M 111.921875 32.078125 
Q 107.671875 32.078125 105.21875 28.46875 
Q 102.78125 24.859375 102.78125 18.40625 
Q 102.78125 12.0625 105.21875 8.421875 
Q 107.671875 4.78125 111.921875 4.78125 
Q 116.0625 4.78125 118.484375 8.421875 
Q 120.90625 12.0625 120.90625 18.40625 
Q 120.90625 24.8125 118.484375 28.4375 
Q 116.0625 32.078125 111.921875 32.078125 
M 111.921875 38.28125 
Q 119.625 38.28125 124.171875 32.90625 
Q 128.71875 27.546875 128.71875 18.40625 
Q 128.71875 9.28125 124.140625 3.921875 
Q 119.578125 -1.421875 111.921875 -1.421875 
Q 104.109375 -1.421875 99.5625 3.921875 
Q 95.015625 9.28125 95.015625 18.40625 
Q 95.015625 27.59375 99.578125 32.9375 
Q 104.15625 38.28125 111.921875 38.28125 
M 22.3125 74.21875 
Q 30.03125 74.21875 34.609375 68.875 
Q 39.203125 63.53125 39.203125 54.390625 
Q 39.203125 45.171875 34.640625 39.84375 
Q 30.078125 34.515625 22.3125 34.515625 
Q 14.546875 34.515625 10.03125 39.859375 
Q 5.515625 45.21875 5.515625 54.390625 
Q 5.515625 63.484375 10.046875 68.84375 
Q 14.59375 74.21875 22.3125 74.21875 
M 66.40625 74.21875 
L 74.21875 74.21875 
L 28.609375 -1.421875 
L 20.796875 -1.421875 
z
M 22.3125 68.015625 
Q 18.109375 68.015625 15.6875 64.375 
Q 13.28125 60.75 13.28125 54.390625 
Q 13.28125 47.953125 15.671875 44.328125 
Q 18.0625 40.71875 22.3125 40.71875 
Q 26.5625 40.71875 28.96875 44.328125 
Q 31.390625 47.953125 31.390625 54.390625 
Q 31.390625 60.6875 28.953125 64.34375 
Q 26.515625 68.015625 22.3125 68.015625 
M 72.703125 38.28125 
Q 80.421875 38.28125 84.953125 32.90625 
Q 89.5 27.546875 89.5 18.40625 
Q 89.5 9.28125 84.9375 3.921875 
Q 80.375 -1.421875 72.703125 -1.421875 
Q 64.890625 -1.421875 60.34375 3.921875 
Q 55.8125 9.28125 55.8125 18.40625 
Q 55.8125 27.59375 60.375 32.9375 
Q 64.9375 38.28125 72.703125 38.28125 
M 72.703125 32.078125 
Q 68.453125 32.078125 66.03125 28.46875 
Q 63.625 24.859375 63.625 18.40625 
Q 63.625 12.0625 66.03125 8.421875 
Q 68.453125 4.78125 72.703125 4.78125 
Q 76.859375 4.78125 79.265625 8.421875 
Q 81.6875 12.0625 81.6875 18.40625 
Q 81.6875 24.8125 79.265625 28.4375 
Q 76.859375 32.078125 72.703125 32.078125 
" id="DejaVuSans-2030"/>
     </defs>
     <g transform="translate(345.1578125 342.271875)scale(0.1 -0.1)">
      <use xlink:href="#DejaVuSans-421"/>
      <use x="69.82421875" xlink:href="#DejaVuSans-43b"/>
      <use x="133.740234375" xlink:href="#DejaVuSans-438"/>
      <use x="198.73046875" xlink:href="#DejaVuSans-447"/>
      <use x="257.8125" xlink:href="#DejaVuSans-43d"/>
      <use x="323.193359375" xlink:href="#DejaVuSans-43e"/>
      <use x="384.375" xlink:href="#DejaVuSans-20"/>
      <use x="416.162109375" xlink:href="#DejaVuSans-437"/>
      <use x="469.3359375" xlink:href="#DejaVuSans-430"/>
      <use x="530.615234375" xlink:href="#DejaVuSans-441"/>
      <use x="585.595703125" xlink:href="#DejaVuSans-442"/>
      <use x="643.84765625" xlink:href="#DejaVuSans-430"/>
      <use x="705.126953125" xlink:href="#DejaVuSans-43f"/>
      <use x="770.5078125" xlink:href="#DejaVuSans-435"/>
      <use x="832.03125" xlink:href="#DejaVuSans-43d"/>
      <use x="897.412109375" xlink:href="#DejaVuSans-438"/>
      <use x="962.40234375" xlink:href="#DejaVuSans-20"/>
      <use x="994.189453125" xlink:href="#DejaVuSans-437"/>
      <use x="1047.36328125" xlink:href="#DejaVuSans-431"/>
      <use x="1109.03320312" xlink:href="#DejaVuSans-43e"/>
      <use x="1170.21484375" xlink:href="#DejaVuSans-440"/>
      <use x="1233.69140625" xlink:href="#DejaVuSans-43e"/>
      <use x="1294.87304688" xlink:href="#DejaVuSans-432"/>
      <use x="1353.80859375" xlink:href="#DejaVuSans-438"/>
      <use x="1418.79882812" xlink:href="#DejaVuSans-20"/>
      <use x="1450.5859375" xlink:href="#DejaVuSans-28"/>
      <use x="1489.59960938" xlink:href="#DejaVuSans-412"/>
      <use x="1558.203125" xlink:href="#DejaVuSans-41c"/>
      <use x="1644.48242188" xlink:href="#DejaVuSans-420"/>
      <use x="1704.78515625" xlink:href="#DejaVuSans-41e"/>
      <use x="1783.49609375" xlink:href="#DejaVuSans-29"/>
      <use x="1822.50976562" xlink:href="#DejaVuSans-2c"/>
      <use x="1854.296875" xlink:href="#DejaVuSans-20"/>
      <use x="1886.08398438" xlink:href="#DejaVuSans-2030"/>
     </g>
    </g>
    <g id="patch_43">
     <path d="M 317.157813 357.120313 
L 337.157813 357.120313 
L 337.157813 350.120313 
L 317.157813 350.120313 
z
" style="fill:#0000ff;stroke:#000000;stroke-linejoin:miter;stroke-width:0.3;"/>
    </g>
    <g id="text_25">
     <!-- Слично застапени зборови (СДСМ), ‰ -->
     <defs>
      <path d="M 22.796875 8.296875 
L 55.03125 8.296875 
L 55.03125 64.59375 
L 31.34375 64.59375 
L 31.34375 54.25 
Q 31.34375 29.890625 25.875 13.71875 
Q 24.75 10.40625 22.796875 8.296875 
M 8.40625 8.296875 
Q 14.9375 11.375 16.796875 17.234375 
Q 21.53125 32.28125 21.53125 59.125 
L 21.53125 72.90625 
L 64.890625 72.90625 
L 64.890625 8.296875 
L 73.1875 8.296875 
L 73.1875 -15.671875 
L 64.890625 -15.671875 
L 64.890625 0 
L 13.234375 0 
L 13.234375 -15.671875 
L 4.9375 -15.671875 
L 4.9375 8.296875 
z
" id="DejaVuSans-414"/>
     </defs>
     <g transform="translate(345.1578125 357.1203125)scale(0.1 -0.1)">
      <use xlink:href="#DejaVuSans-421"/>
      <use x="69.82421875" xlink:href="#DejaVuSans-43b"/>
      <use x="133.740234375" xlink:href="#DejaVuSans-438"/>
      <use x="198.73046875" xlink:href="#DejaVuSans-447"/>
      <use x="257.8125" xlink:href="#DejaVuSans-43d"/>
      <use x="323.193359375" xlink:href="#DejaVuSans-43e"/>
      <use x="384.375" xlink:href="#DejaVuSans-20"/>
      <use x="416.162109375" xlink:href="#DejaVuSans-437"/>
      <use x="469.3359375" xlink:href="#DejaVuSans-430"/>
      <use x="530.615234375" xlink:href="#DejaVuSans-441"/>
      <use x="585.595703125" xlink:href="#DejaVuSans-442"/>
      <use x="643.84765625" xlink:href="#DejaVuSans-430"/>
      <use x="705.126953125" xlink:href="#DejaVuSans-43f"/>
      <use x="770.5078125" xlink:href="#DejaVuSans-435"/>
      <use x="832.03125" xlink:href="#DejaVuSans-43d"/>
      <use x="897.412109375" xlink:href="#DejaVuSans-438"/>
      <use x="962.40234375" xlink:href="#DejaVuSans-20"/>
      <use x="994.189453125" xlink:href="#DejaVuSans-437"/>
      <use x="1047.36328125" xlink:href="#DejaVuSans-431"/>
      <use x="1109.03320312" xlink:href="#DejaVuSans-43e"/>
      <use x="1170.21484375" xlink:href="#DejaVuSans-440"/>
      <use x="1233.69140625" xlink:href="#DejaVuSans-43e"/>
      <use x="1294.87304688" xlink:href="#DejaVuSans-432"/>
      <use x="1353.80859375" xlink:href="#DejaVuSans-438"/>
      <use x="1418.79882812" xlink:href="#DejaVuSans-20"/>
      <use x="1450.5859375" xlink:href="#DejaVuSans-28"/>
      <use x="1489.59960938" xlink:href="#DejaVuSans-421"/>
      <use x="1559.42382812" xlink:href="#DejaVuSans-414"/>
      <use x="1637.54882812" xlink:href="#DejaVuSans-421"/>
      <use x="1707.37304688" xlink:href="#DejaVuSans-41c"/>
      <use x="1793.65234375" xlink:href="#DejaVuSans-29"/>
      <use x="1832.66601562" xlink:href="#DejaVuSans-2c"/>
      <use x="1864.453125" xlink:href="#DejaVuSans-20"/>
      <use x="1896.24023438" xlink:href="#DejaVuSans-2030"/>
     </g>
    </g>
   </g>
  </g>
 </g>
 <defs>
  <clipPath id="pab6ab58d54">
   <rect height="357.4" width="463.65" x="93.55" y="10.8"/>
  </clipPath>
 </defs>
</svg>
